<svg width="522" height="48" viewBox="0 0 522 48" fill="none" xmlns="http://www.w3.org/2000/svg">
<path d="M57.4533 15.5628C55.3861 17.279 52.9873 20.1263 50.257 24.1047H53.1239V46.3372H39.0238V45.4596H17.8445V46.3372H3.74441V24.1047H45.05L42.3002 21.1794L1.87221 23.2271C1.7942 22.525 1.71619 21.979 1.63818 21.5889C1.13112 17.3765 0.585063 14.0806 -1.40904e-06 11.7013L7.83986 11.5258L14.0415 1.22868L30.0723 2.22329L24.9823 11.1748L34.0508 10.9408C32.6856 9.02954 31.301 6.72829 29.8968 4.03699L42.5927 1.34569C44.933 4.66106 47.4097 7.48887 50.023 9.82913C52.6363 12.1694 55.1131 14.0806 57.4533 15.5628ZM17.8445 32.8807V35.572H39.0238V32.8807H17.8445ZM87.4086 35.689H114.907C114.907 37.4052 114.829 38.9848 114.673 40.428C114.517 42.5732 113.425 44.0944 111.396 44.9915C109.368 45.8496 106.443 46.2787 102.62 46.2787H92.6157H86.1215C85.8485 44.9915 85.3999 43.8019 84.7759 42.7098C79.9003 42.0467 75.5318 41.6956 71.6704 41.6566C73.0746 38.0682 74.0302 34.8309 74.5372 31.9446H98.9929V31.2425H72.8405V28.7267L72.4895 30.5404C70.9293 38.4583 69.8177 43.7824 69.1546 46.5127C64.0841 45.2645 60.2031 44.4259 57.5118 43.9969C58.721 40.6425 59.7156 37.4247 60.4957 34.3433C61.2758 31.223 62.0363 27.8491 62.7774 24.2217L66.7559 24.8653C64.2986 23.5391 61.3928 22.4275 58.0384 21.5304L63.4795 12.5789C65.3517 13.125 67.731 14.1001 70.6173 15.5043L72.548 16.3819C72.548 15.1727 72.4505 13.7491 72.2555 12.1109L74.7127 11.9939L75.5903 11.0578C74.8883 10.2777 74.0692 9.43909 73.1331 8.54199L70.4418 14.1586C66.3853 12.2864 62.1729 10.9212 57.8044 10.0632L62.7774 0.702122C64.4936 1.13117 67.0094 2.02827 70.3248 3.39342L73.3086 4.56355L74.1277 2.80836L74.8883 3.51043C75.5903 2.41831 76.1364 1.3847 76.5264 0.40959L81.0899 1.69673L77.8721 6.49426L78.5742 7.25484C80.0173 5.26562 81.3435 3.12039 82.5526 0.819133L86.2385 1.98926H101.567V5.14861H86.2385V3.62745L85.2439 5.0316C84.7368 5.85069 84.1908 6.65028 83.6057 7.43036L85.0684 7.19634C85.1854 8.24946 85.3219 9.30257 85.4779 10.3557C85.673 11.4088 85.8095 12.1694 85.8875 12.6374C86.1995 14.4316 86.3945 15.6603 86.4725 16.3233L83.1962 16.7914L83.0792 15.7968L82.2016 15.9723L81.9675 26.5035H76.3509L76.5264 16.7329L73.8351 17.0254L73.3671 17.903L75.5903 17.8445V19.7167C75.5903 21.979 75.4733 24.2022 75.2393 26.3865C74.9273 26.3475 74.6152 26.3084 74.3032 26.2694C74.0302 26.2304 73.6986 26.2109 73.3086 26.2109L73.1331 27.147H113.503V35.1039H87.5257L87.4086 35.689ZM101.801 6.08472L103.322 2.80836L104.083 3.51043C104.785 2.41831 105.331 1.3847 105.721 0.40959L110.285 1.69673C108.842 3.88097 107.769 5.46065 107.067 6.43575L107.769 7.25484C109.212 5.34363 110.558 3.1984 111.806 0.819133L115.55 2.80836L112.391 7.48887L114.263 7.19634C114.614 10.1217 115.004 12.7154 115.433 14.9777L115.667 16.3233L112.391 16.7914L112.274 15.7968L111.396 15.9723L111.162 26.5035H105.546L105.721 16.7329C105.331 16.7719 103.946 16.9084 101.567 17.1424C101.567 15.1532 101.45 13.476 101.216 12.1109L103.966 11.9939L104.785 11.1163C104.005 10.1802 103.049 9.18556 101.918 8.13244V9.5366H86.0045V6.08472H101.801ZM111.221 9.24407L109.583 11.8183C110.129 11.8183 110.792 11.7793 111.572 11.7013L111.221 9.24407ZM80.5049 11.8183L82.3771 11.7013C82.3381 11.2723 82.2406 10.5897 82.0846 9.65361L80.5049 11.8183ZM87.1161 10.5897H100.631V13.8076H87.1161V10.5897ZM100.631 17.903H87.1161V14.7437H100.631V17.903ZM82.9622 26.2109C82.8451 22.7396 82.7866 19.8922 82.7866 17.669L85.7705 17.4935C85.7705 21.0039 85.8095 23.7927 85.8875 25.8599C85.3804 25.9769 84.4053 26.0939 82.9622 26.2109ZM114.907 17.4935C114.907 19.0536 114.946 20.3993 115.024 21.5304C115.102 22.6225 115.238 24.0462 115.433 25.8014C113.561 26.0354 112.469 26.1719 112.157 26.2109C112.04 22.7396 111.981 19.8922 111.981 17.669L114.907 17.4935ZM101.684 26.1524C101.957 23.6562 102.094 20.9064 102.094 17.903L104.785 17.8445V19.7167C104.785 21.979 104.668 24.2022 104.434 26.3865C102.874 26.2304 101.957 26.1524 101.684 26.1524ZM69.0961 25.2748L72.2555 25.8014C72.5285 24.4362 72.704 23.2466 72.782 22.2325C72.86 21.2184 72.899 20.0288 72.899 18.6636L69.0961 25.2748ZM101.041 26.5035H86.7066V18.8976H101.041V26.5035ZM95.424 22.1155H92.3232V23.5196H95.424V22.1155ZM86.297 39.4334L86.063 40.077C89.6124 40.194 93.8834 40.2525 98.8759 40.2525C99.734 40.2525 100.319 40.2135 100.631 40.1355C100.982 40.0185 101.177 39.7844 101.216 39.4334H86.297ZM158.318 37.7367V38.5558H172.77V45.8691H130.235V39.6674C129.884 42.3197 129.338 44.699 128.597 46.8052C125.828 45.4401 123.566 44.3869 121.81 43.6459C120.055 42.9048 118.183 42.3587 116.194 42.0077C116.974 39.9014 117.559 37.8537 117.949 35.8645C118.339 33.8363 118.612 31.145 118.768 27.7906C118.963 24.4362 119.061 19.6972 119.061 13.5735V2.57433L172.711 2.63283L172.77 11.9354H131.288C131.249 12.2864 131.23 12.5789 131.23 12.813C131.269 13.008 131.288 13.203 131.288 13.398V16.3233C131.288 19.0536 131.249 22.291 131.171 26.0354C132.42 25.8014 133.356 25.5479 133.98 25.2748C134.643 25.0018 135.169 24.6313 135.559 24.1632H132.049V18.8976H136.613V18.2541H132.634C132.673 16.6159 132.478 14.8802 132.049 13.047H134.389C138.758 13.047 144.043 12.9105 150.245 12.6374C149.855 14.5877 149.66 16.3233 149.66 17.8445L145.798 18.02V18.8976H150.245V24.1632H146.149C147.709 24.9823 149.523 25.5089 151.59 25.7429L151.064 26.2109C152.039 25.9769 152.858 25.7234 153.521 25.4504C154.223 25.1383 154.847 24.7093 155.393 24.1632H151.239V18.8976H156.037V18.2541H151.415C151.454 16.5379 151.239 14.8022 150.771 13.047H153.404C158.24 13.047 164.072 12.9105 170.897 12.6374C170.468 14.4706 170.254 16.2063 170.254 17.8445L165.573 18.02V18.8976H170.897V24.1632H166.217C167.66 25.0993 169.61 25.7819 172.067 26.2109C170.975 27.6931 170.215 29.8578 169.786 32.7052C167.875 32.0031 166.47 30.7354 165.573 28.9022V32.4711H158.318V33.3487H170.839V37.7367H158.318ZM131.113 27.147C130.996 31.3595 130.742 35.1624 130.352 38.5558H133.219V33.1147H144.979V38.5558H146.617V31.7691H148.372C147.358 31.223 146.5 30.6769 145.798 30.1309V32.4711H136.613V29.6628C135.793 31.067 134.662 32.0811 133.219 32.7052C133.063 31.574 132.829 30.5794 132.517 29.7213C132.205 28.8242 131.737 27.9661 131.113 27.147ZM151.766 31.7691C151.181 30.5989 150.479 29.4483 149.66 28.3172C149.269 29.1363 148.879 30.2869 148.489 31.7691H151.766ZM156.037 29.0192C155.491 29.9163 154.613 30.8329 153.404 31.7691H156.037V29.0192ZM231.452 29.7213V40.8376H214.777V46.6297H201.964V40.8376H176.455V29.7213H184.061V25.2163C183.281 26.0354 182.443 26.8155 181.546 27.5566C180.57 24.6703 179.634 22.1935 178.737 20.1263C177.879 18.02 176.846 16.0113 175.636 14.1001C177.626 12.774 179.205 10.9798 180.375 8.71751C181.585 6.45526 182.209 3.90047 182.248 1.05316L195.47 1.17017C195.392 2.06727 195.275 3.02288 195.119 4.03699H229.228V14.5682H214.777V17.0839H227.649V26.3865H214.777V29.7213H231.452ZM201.964 14.5682H191.726L190.38 17.0839H201.964V14.5682ZM196.64 26.3865V29.7213H201.964V26.3865H196.64ZM284.4 30.6574C285.18 31.8666 286.175 32.8027 287.384 33.4657C288.593 34.1288 290.095 34.5579 291.889 34.7529C291.031 36.3911 290.29 38.1268 289.665 39.96C289.08 41.7542 288.476 44.0359 287.852 46.8052C285.668 45.4791 283.717 43.7044 282.001 41.4811C282.04 41.6761 282.06 41.9492 282.06 42.3002C282.06 44.4845 280.967 45.6936 278.783 45.9276C276.482 46.0836 274.376 46.1616 272.465 46.1616C270.475 46.1616 268.564 46.0836 266.731 45.9276C265.444 45.8106 264.488 45.5181 263.864 45.05C263.279 44.543 262.987 43.8214 262.987 42.8853V42.7098C261.582 44.1529 259.808 45.5181 257.662 46.8052C256.999 43.6459 256.317 41.0911 255.615 39.1409L255.966 42.6513L256.083 43.8799L253.216 44.2309L250.525 44.582C250.33 37.8732 250.232 32.7052 250.232 29.0778L255.264 28.7852C255.264 31.4375 255.283 33.3292 255.322 34.4603C257.974 33.8753 259.905 32.6076 261.114 30.6574H255.966V27.2641L250.408 28.1416L250.291 26.913L249.179 27.0885V46.3957H240.696V28.2587C238.628 28.5317 236.444 28.7657 234.143 28.9607C234.143 25.4504 233.987 22.5835 233.675 20.3603L237.244 20.2433L238.765 18.3126C237.946 17.2985 237.029 16.2453 236.015 15.1532C235.001 14.0611 234.123 13.1835 233.382 12.5204L236.659 4.50504C237.478 5.32413 237.887 5.73368 237.887 5.73368C238.823 4.17351 239.701 2.39881 240.52 0.40959L248.126 2.51582C245.747 6.41625 243.972 9.22456 242.802 10.9408L243.504 11.7598C245.844 8.24945 247.911 4.70006 249.706 1.11167L256.726 3.51043H266.965L267.374 2.16478H277.028L276.619 3.51043H288.963V30.6574H284.4ZM254.094 12.1694L255.147 18.6636C255.381 19.8337 255.654 21.4329 255.966 23.4611V6.31874L251.929 12.5204L254.094 12.1694ZM264.8 10.4142V11.5258L266.906 10.6482C267.726 11.0773 268.33 11.4673 268.72 11.8183C269.032 11.4673 269.344 10.9993 269.656 10.4142H264.8ZM280.246 11.2918V10.4142H274.395L274.103 11.2918H280.246ZM264.8 14.6267C265.775 14.1976 266.399 13.9051 266.672 13.7491C266.126 13.32 265.502 12.891 264.8 12.4619V14.6267ZM274.629 16.6159C275.175 16.2258 275.702 15.7188 276.209 15.0947H272.406L274.629 16.6159ZM266.848 18.8976C266.341 18.1565 265.658 17.2985 264.8 16.3233V19.0731L266.848 18.8976ZM249.237 19.8337C249.042 18.5856 248.906 17.708 248.828 17.2009L248.126 18.2541C247.97 18.4881 247.794 18.7416 247.599 19.0146C247.404 19.2877 247.19 19.5997 246.956 19.9507L249.237 19.8337ZM269.773 17.4935C269.188 18.0005 268.584 18.4491 267.96 18.8391C269.091 18.7221 270.046 18.5466 270.826 18.3126L269.773 17.4935ZM279.427 20.7113L277.496 22.9931H280.246V18.137C279.778 18.7221 279.193 19.3462 278.491 20.0093L279.427 20.7113ZM264.8 22.9931H266.263C265.873 21.979 265.385 21.0039 264.8 20.0678V22.9931ZM275.741 21.8815C275.273 22.1545 274.493 22.525 273.401 22.9931H276.911L275.741 21.8815ZM234.728 29.6043C235.469 29.6043 236.503 29.5653 237.829 29.4873L239.701 29.4288V31.418C239.701 33.9923 239.662 36.274 239.584 38.2633C239.506 40.2525 239.311 42.4757 238.999 44.933C238.687 44.894 238.024 44.816 237.01 44.699C236.035 44.543 234.884 44.465 233.558 44.465C234.065 41.8907 234.377 39.5699 234.494 37.5027C234.65 35.3965 234.728 32.7637 234.728 29.6043ZM271.528 30.6574H263.338C265.21 31.8276 266.848 32.7247 268.252 33.3487H269.598C269.286 32.9587 268.701 32.3346 267.843 31.4765L271.528 30.6574ZM278.608 32.0616C279.661 31.6325 280.714 31.1645 281.767 30.6574H276.853C277.828 31.4765 278.413 31.9446 278.608 32.0616ZM274.22 36.9176C274.766 36.8786 275.039 36.6641 275.039 36.274C275.039 36.235 274.961 35.8645 274.805 35.1624L271.821 35.9815L270.417 34.2848L270.124 35.923C270.085 36.04 270.066 36.2155 270.066 36.4496C270.066 36.8396 270.261 37.0346 270.651 37.0346C272.679 37.0346 273.869 36.9956 274.22 36.9176ZM275.214 35.1039C275.916 35.2209 276.599 35.2794 277.262 35.2794C277.769 35.2794 278.159 35.2599 278.432 35.2209L278.081 34.2848L275.214 35.1039ZM341.619 24.8068C342.828 25.5869 343.881 26.1914 344.779 26.6205C345.676 27.0495 346.651 27.3811 347.704 27.6151C348.328 30.8524 348.64 33.8753 348.64 36.6836C348.64 39.4139 348.328 41.5006 347.704 42.9438C347.275 43.9579 346.768 44.699 346.183 45.167C345.598 45.5961 345.091 45.8496 344.662 45.9276C344.232 45.9666 343.706 45.9861 343.082 45.9861H337.29C335.652 45.9861 334.384 45.8496 333.487 45.5766C332.629 45.2645 332.005 44.7575 331.615 44.0554C331.264 43.3143 331.088 42.2417 331.088 40.8376C331.088 40.4475 331.127 39.6674 331.205 38.4973L332.317 24.9823L331.03 25.0993C330.874 30.7549 330.542 35.1039 330.035 38.1463C329.528 41.1496 328.826 43.9579 327.929 46.5712C324.262 45.323 321.259 44.4259 318.919 43.8799L315.408 44.2309L312.249 44.582C312.015 38.5363 311.898 33.3682 311.898 29.0778L317.866 28.7852C317.866 32.9587 318.022 36.6056 318.334 39.7259C319.114 37.9707 319.738 36.0595 320.206 33.9923C320.674 31.9251 320.986 29.2923 321.142 26.0939L320.089 26.2109C319.933 24.2217 319.777 22.564 319.621 21.2379C319.465 19.9117 319.192 18.2541 318.802 16.2648L321.669 16.0893L323.365 12.3449H318.1V7.13783L313.887 12.5204L316.461 12.1694C317.32 15.9138 317.944 18.8586 318.334 21.0039C318.763 23.1101 319.075 25.1968 319.27 27.2641L312.073 28.2002L311.956 26.913L310.845 27.0885V46.3957H300.489V28.2587C298.071 28.5317 295.497 28.7657 292.766 28.9607C292.766 25.4504 292.61 22.5835 292.298 20.3603L296.452 20.2433L298.324 18.3126C297.31 17.2594 296.199 16.1868 294.99 15.0947C293.78 14.0026 292.747 13.1445 291.889 12.5204L295.75 4.50504L297.271 5.73368C298.168 4.48554 299.183 2.71084 300.314 0.40959L309.382 2.51582L308.388 3.86147C306.008 7.17684 304.253 9.5366 303.122 10.9408L303.883 11.7598C306.574 8.24945 309.051 4.70006 311.313 1.11167L319.27 3.39342H326.876V1.22868H337.582V3.39342H347.938V12.3449H343.667C345.773 14.3341 348.016 16.1868 350.395 17.903C349.264 18.8001 348.074 19.9507 346.826 21.3549C345.617 22.7591 344.623 24.1047 343.842 25.3918L342.321 23.9292L341.678 23.9877L341.619 24.8068ZM333.838 12.3449L332.492 15.3872L335.242 15.2117C334.696 14.4316 334.306 13.8466 334.072 13.4565L338.343 12.3449H333.838ZM310.377 17.0254C309.285 18.3516 308.505 19.3267 308.036 19.9507L310.903 19.8337L310.377 17.0254ZM340.859 33.5828V33.6998C340.859 33.9728 340.917 34.2068 341.034 34.4018C341.19 34.5579 341.366 34.6359 341.561 34.6359C341.756 34.6359 341.931 34.5384 342.087 34.3433C342.243 34.1483 342.321 33.8753 342.321 33.5242C342.321 31.574 342.048 29.1168 341.502 26.1524L340.859 33.5828ZM293.527 29.6043C294.307 29.6043 295.516 29.5653 297.154 29.4873L299.495 29.4288C299.495 32.9002 299.436 35.6695 299.319 37.7367C299.241 39.7649 298.968 42.1637 298.5 44.933C298.227 44.894 297.486 44.816 296.277 44.699C295.107 44.543 293.702 44.465 292.064 44.465C292.688 41.8907 293.078 39.5699 293.234 37.5027C293.429 35.4355 293.527 32.8027 293.527 29.6043ZM419.561 10.9408L418.625 13.4565C417.026 17.747 415.914 20.6138 415.29 22.057C417.865 26.0354 419.152 29.5848 419.152 32.7052C419.152 36.2545 418.216 38.9848 416.343 40.8961C414.51 42.7683 411.975 43.6654 408.738 43.5874C408.308 39.999 407.548 37.0931 406.456 34.8699V46.1031H395.515V9.47809L393.701 12.1109H394.169V19.9507H387.09L386.564 20.4188L385.803 21.0624H394.111V46.4542H383.229V45.8691H376.793V46.4542H365.794V33.2317L364.097 33.9338C363.746 29.7603 362.946 26.1524 361.698 23.1101C364.468 22.681 366.827 22.252 368.778 21.823C370.728 21.3549 372.542 20.7308 374.219 19.9507H363.102V12.1109H369.363V10.8822H364.214V2.92537H369.363V1.34569H381.239V2.92537H387.5V4.97309C387.656 4.66106 387.792 4.36853 387.909 4.09549C388.065 3.78346 388.202 3.51043 388.319 3.2764L388.845 2.04777L395.515 4.50504V2.39881H416.577L419.561 10.9408ZM381.239 10.8822V12.1109H383.346L384.223 10.8822H381.239ZM406.456 12.2864V19.2487C407.782 16.5184 408.464 14.1976 408.503 12.2864H406.456ZM406.456 32.7052C407.002 32.4711 407.45 32.1201 407.801 31.652C408.152 31.184 408.328 30.6184 408.328 29.9554C408.328 28.6292 407.704 27.108 406.456 25.3918V32.7052ZM376.793 29.7213H383.229V28.2002H376.793V29.7213ZM376.793 36.274V37.8537H383.229V36.274H376.793ZM477.951 23.1101V29.4873H471.632C473.114 30.3844 475.103 31.2035 477.6 31.9446C477.6 36.3131 477.463 39.5114 477.19 41.5396C476.956 43.5288 476.547 44.8355 475.961 45.4596C475.376 46.0446 474.479 46.3372 473.27 46.3372C471.125 46.3372 469.155 46.1811 467.361 45.8691C465.606 45.5181 463.734 44.9915 461.744 44.2894C459.95 43.6654 458.195 42.9048 456.479 42.0077C453.28 43.5679 448.522 45.0695 442.203 46.5127C439.629 44.7575 437.074 43.3143 434.539 42.1832C434.149 43.7044 433.447 45.167 432.433 46.5712L427.46 45.167C423.949 44.1529 421.726 43.5288 420.79 43.2948C421.765 42.2027 422.467 41.0521 422.896 39.8429C423.364 38.5948 423.657 37.2297 423.774 35.7475C423.891 34.2653 423.949 32.1786 423.949 29.4873H421.667V23.1101H445.129C444.777 19.7167 444.602 15.0752 444.602 9.18556V5.32413C444.68 5.24612 443.958 6.08472 442.437 7.83991L440.916 9.65361L443.022 9.41958C443.256 14.0611 443.705 18.1956 444.368 21.823L439.161 22.4665L438.985 21.2379C434.968 21.5499 432.296 21.7449 430.97 21.823C426.289 22.135 423.091 22.369 421.375 22.525L421.141 15.7383C423.169 15.6603 424.924 15.6213 426.406 15.6213C424.573 13.164 422.857 11.2333 421.258 9.82913L425.002 4.50504L426.055 5.61666C427.109 4.21251 428.084 2.69134 428.981 1.05316L435.885 3.45192C433.427 6.53326 431.575 8.75651 430.326 10.1217L431.028 10.8237C433.369 8.09344 435.631 5.32413 437.815 2.51582L444.602 5.09011L444.66 1.28719H455.66V5.9092L456.654 4.50504L457.532 5.49965C458.663 3.90048 459.482 2.57433 459.989 1.52121L467.01 3.15939C465.06 6.35775 463.5 8.79552 462.329 10.4727L463.032 11.2333C465.333 7.83991 467.322 4.77807 468.999 2.04777L476.664 3.97848L472.861 9.71211L475.61 9.41958C475.766 11.6818 476.527 15.8163 477.892 21.823L471.924 22.4665C471.846 22.1935 471.768 21.7839 471.69 21.2379L465.313 21.7644C466.483 22.1935 467.537 22.642 468.473 23.1101H477.951ZM455.66 15.6798C456.713 15.6798 457.532 15.6603 458.117 15.6213L455.66 12.5789V15.6798ZM438.342 15.3287C438.264 14.7827 438.186 13.9636 438.108 12.8715C437.601 13.4955 437.328 13.8271 437.289 13.8661C436.353 14.9192 435.904 15.4262 435.943 15.3872C437.035 15.3872 437.835 15.3677 438.342 15.3287ZM470.696 15.3287C470.618 14.8607 470.54 14.1976 470.462 13.3395L469.058 15.3872L470.696 15.3287ZM456.011 22.5835C456.05 22.7005 456.069 22.8761 456.069 23.1101H460.808L461.686 22.1155C460.087 22.1935 458.195 22.3495 456.011 22.5835ZM447.527 32.4126C447.215 31.7105 446.845 30.7354 446.416 29.4873H437.113C440.546 30.8524 444.017 31.8276 447.527 32.4126ZM459.053 31.418C460.223 30.5599 461.042 29.9163 461.51 29.4873H457.883C458.195 30.0724 458.585 30.7159 459.053 31.418ZM468.297 33.1732C468.375 32.4711 468.453 31.2425 468.531 29.4873H462.329L468.297 33.1732ZM447.995 33.4072C447.059 34.3043 445.675 35.8255 443.841 37.9707C445.909 37.5027 447.878 36.9371 449.751 36.274C449.087 35.3379 448.502 34.3823 447.995 33.4072ZM466.893 36.274C467.205 36.4301 467.478 36.3521 467.712 36.04C467.946 35.689 468.141 34.8504 468.297 33.5242L465.723 35.806L466.893 36.274ZM435.358 36.7421C435.28 37.9902 435.202 38.9263 435.124 39.5504C436.489 39.3944 438.205 39.1214 440.273 38.7313C438.439 38.1072 436.801 37.4442 435.358 36.7421ZM501.412 4.30285e-05C505.117 4.30285e-05 508.53 0.624112 511.65 1.87225C514.81 3.12039 517.306 4.85608 519.139 7.07933C520.972 9.30257 521.889 11.8574 521.889 14.7437C521.889 17.0839 521.323 19.0927 520.192 20.7698C519.061 22.447 517.618 23.8122 515.863 24.8653L512.762 26.6205C511.085 27.5566 509.973 28.2002 509.427 28.5512C508.53 29.0973 507.906 29.7018 507.555 30.3649C507.204 31.028 507.028 31.8081 507.028 32.7052H493.63C493.63 29.7408 494.332 27.2641 495.737 25.2748C497.141 23.2466 499.501 21.4914 502.816 20.0093C504.298 19.3462 505.371 18.6246 506.034 17.8445C506.736 17.0254 507.087 16.1088 507.087 15.0947C507.087 13.9636 506.541 12.9885 505.449 12.1694C504.396 11.3503 503.05 10.9408 501.412 10.9408C499.188 10.9408 497.453 11.4868 496.205 12.5789C494.996 13.6711 494.391 15.2117 494.391 17.2009C494.391 17.981 494.508 18.8781 494.742 19.8922C491.622 18.9951 486.961 18.5466 480.759 18.5466C480.72 18.1956 480.7 17.708 480.7 17.0839C480.7 13.8076 481.559 10.8822 483.275 8.30796C485.03 5.69467 487.468 3.66645 490.588 2.22329C493.747 0.741126 497.355 4.30285e-05 501.412 4.30285e-05ZM507.087 47.5073H493.513V37.0931H507.087V47.5073Z" fill="#334155"/>
</svg>
