<svg width="138" height="86" viewBox="0 0 138 86" fill="none" xmlns="http://www.w3.org/2000/svg">
<path fill-rule="evenodd" clip-rule="evenodd" d="M32.1766 85.6702C38.5425 85.6702 44.4767 83.2091 49.4715 78.9627C54.4663 83.2091 60.4005 85.6702 66.7664 85.6702C73.92 85.6702 80.5284 82.5624 85.8713 77.3058C91.2141 82.5624 97.8225 85.6702 104.976 85.6702C122.747 85.6702 137.153 66.4922 137.153 42.8351C137.153 19.1779 122.747 0 104.976 0C97.8225 0 91.2141 3.10775 85.8713 8.36441C80.5284 3.10775 73.92 0 66.7664 0C60.4005 0 54.4663 2.46106 49.4715 6.70746C44.4767 2.46106 38.5425 0 32.1766 0C14.4059 0 0 19.1779 0 42.8351C0 66.4922 14.4059 85.6702 32.1766 85.6702Z" fill="url(#paint0_radial_5027_12529)"/>
<path fill-rule="evenodd" clip-rule="evenodd" d="M32.1766 85.6702C38.5425 85.6702 44.4767 83.2091 49.4715 78.9627C54.4663 83.2091 60.4005 85.6702 66.7664 85.6702C73.92 85.6702 80.5284 82.5624 85.8713 77.3058C91.2141 82.5624 97.8225 85.6702 104.976 85.6702C122.747 85.6702 137.153 66.4922 137.153 42.8351C137.153 19.1779 122.747 0 104.976 0C97.8225 0 91.2141 3.10775 85.8713 8.36441C80.5284 3.10775 73.92 0 66.7664 0C60.4005 0 54.4663 2.46106 49.4715 6.70746C44.4767 2.46106 38.5425 0 32.1766 0C14.4059 0 0 19.1779 0 42.8351C0 66.4922 14.4059 85.6702 32.1766 85.6702Z" fill="url(#paint1_radial_5027_12529)"/>
<path d="M26.5732 44.4238L26.0537 46.3544L28.0071 46.8773L27.633 45.4494L26.5732 44.4238ZM36.3194 45.4494L35.9453 46.8773L37.8987 46.3544L37.3792 44.4238L36.3194 45.4494ZM27.633 40.6229L26.5732 41.6486L26.9681 43.0362L27.633 40.6229Z" fill="white"/>
<path d="M26.9671 43.0361L26.5723 44.4238L27.6321 45.4494L26.9671 43.0361Z" fill="white"/>
<path d="M26.5723 41.6486L25.1384 43.0362L26.5723 44.4238L26.9671 43.0362L26.5723 41.6486ZM29.4816 47.2392L30.5414 48.2649L31.9753 47.8828L29.4816 47.2392ZM33.4092 48.2649L35.4041 48.7676L35.9444 46.8773L34.469 47.2392L33.4092 48.2649Z" fill="white"/>
<path d="M34.4684 47.2393L35.9439 46.8773L36.3179 45.4495L34.4684 47.2393ZM28.0056 46.8773L28.5459 48.7677L30.5409 48.2649L29.481 47.2393L28.0056 46.8773ZM31.9747 47.8828L33.4086 48.2649L34.4684 47.2393L31.9747 47.8828Z" fill="white"/>
<path d="M30.5424 48.2649L31.9762 49.6525L33.4101 48.2649L31.9762 47.8828L30.5424 48.2649ZM28.0071 39.1951L26.0537 39.7179L26.5732 41.6485L27.633 40.6229L28.0071 39.1951ZM27.633 45.4494L28.0071 46.8772L29.4825 47.2392L27.633 45.4494ZM36.9844 43.0362L37.3792 41.6485L36.3194 40.6229L36.9844 43.0362Z" fill="white"/>
<path d="M29.4816 38.8333L28.0061 39.1952L27.6321 40.6231L29.4816 38.8333ZM36.3184 40.6231L35.9444 39.1952L34.4689 38.8333L36.3184 40.6231ZM37.3782 44.4239L38.8121 43.0363L37.3782 41.6487L36.9834 43.0363L37.3782 44.4239Z" fill="white"/>
<path d="M36.3189 40.6229L34.4694 38.8331L31.9757 38.1896L29.482 38.8331L27.6325 40.6229L26.9675 43.0362L27.6325 45.4494L29.482 47.2393L31.9757 47.8828L34.4694 47.2393L36.3189 45.4494L36.9838 43.0362L36.3189 40.6229Z" fill="white"/>
<path d="M36.3179 45.4494L37.3777 44.4238L36.9829 43.0362L36.3179 45.4494ZM37.3777 41.6485L37.8972 39.7179L35.9439 39.1951L36.3179 40.6229L37.3777 41.6485ZM35.9439 39.1951L35.4036 37.3047L33.4086 37.8074L34.4684 38.8331L35.9439 39.1951ZM30.5409 37.8074L28.5459 37.3047L28.0056 39.1951L29.481 38.8331L30.5409 37.8074ZM31.9747 38.1895L30.5409 37.8074L29.481 38.8331L31.9747 38.1895Z" fill="white"/>
<path d="M33.4097 37.8077L31.9759 36.42L30.542 37.8077L31.9759 38.1898L33.4097 37.8077Z" fill="white"/>
<path d="M34.469 38.8331L33.4092 37.8075L31.9753 38.1896L34.469 38.8331ZM30.5414 48.2649L28.5465 48.7677L29.4816 52.106L31.9753 49.6525L30.5414 48.2649ZM29.4816 52.106L31.9753 61.1356L34.469 52.106L31.9753 49.6525L29.4816 52.106ZM28.0062 46.8773L26.0528 46.3544L25.1384 49.6525L28.5465 48.7677L28.0062 46.8773Z" fill="white"/>
<path d="M25.1387 49.6525L22.645 58.7223L29.4819 52.106L28.5468 48.7677L25.1387 49.6525ZM22.645 45.4495L15.7666 52.106L25.1387 49.6525L26.0531 46.3544L22.645 45.4495Z" fill="white"/>
<path d="M26.5723 44.4239L25.1385 43.0362L22.6448 45.4495L26.0528 46.3544L26.5723 44.4239ZM26.5723 41.6486L26.0528 39.718L22.6448 40.623L25.1385 43.0362L26.5723 41.6486Z" fill="white"/>
<path d="M22.6451 40.6229L13.2729 43.0362L22.6451 45.4494L25.1388 43.0362L22.6451 40.6229ZM41.3477 45.4494L37.8981 46.3544L38.8125 49.6525L48.1846 52.106L41.3477 45.4494Z" fill="white"/>
<path d="M35.9447 46.8772L35.4044 48.7676L38.8124 49.6525L37.8981 46.3543L35.9447 46.8772ZM33.4095 48.2648L31.9756 49.6525L34.4693 52.1059L35.4044 48.7676L33.4095 48.2648ZM37.3786 44.4238L37.8981 46.3543L41.3477 45.4494L38.8124 43.0361L37.3786 44.4238Z" fill="white"/>
<path d="M34.4692 52.1062L41.3477 58.7225L38.8124 49.6527L35.4044 48.7678L34.4692 52.1062ZM35.9447 39.1953L37.8981 39.7181L38.8124 36.42L35.4044 37.3049L35.9447 39.1953Z" fill="white"/>
<path d="M41.3477 40.623L48.1845 34.0066L38.8124 36.4199L37.8981 39.718L41.3477 40.623ZM38.8124 36.4199L41.3477 27.3501L34.4692 34.0066L35.4044 37.3047L38.8124 36.4199ZM41.3477 45.4495L50.6782 43.0362L41.3477 40.623L38.8124 43.0362L41.3477 45.4495Z" fill="white"/>
<path d="M37.3783 41.6486L38.8122 43.0362L41.3474 40.623L37.8978 39.718L37.3783 41.6486ZM29.4816 34.0066L22.6448 27.3501L25.1385 36.4199L28.5465 37.3047L29.4816 34.0066Z" fill="white"/>
<path d="M28.0062 39.1953L28.5465 37.3049L25.1384 36.42L26.0528 39.7181L28.0062 39.1953Z" fill="white"/>
<path d="M25.1387 36.42L15.7666 34.0067L22.645 40.623L26.0531 39.7181L25.1387 36.42ZM33.4094 37.8076L35.4044 37.3048L34.4693 34.0067L31.9756 36.42L33.4094 37.8076Z" fill="white"/>
<path d="M34.4693 34.0067L31.9756 24.9369L29.4819 34.0067L31.9756 36.4199L34.4693 34.0067Z" fill="white"/>
<path d="M30.5408 37.8076L31.9747 36.42L29.481 34.0067L28.5459 37.3048L30.5408 37.8076Z" fill="white"/>
<path d="M31.9749 53.3126C37.8396 53.3126 42.5939 48.7117 42.5939 43.0362C42.5939 37.3607 37.8396 32.7598 31.9749 32.7598C26.1102 32.7598 21.356 37.3607 21.356 43.0362C21.356 48.7117 26.1102 53.3126 31.9749 53.3126Z" fill="#FE00BA"/>
<path d="M31.9756 52.1059C37.1517 52.1059 41.3477 48.0452 41.3477 43.0361C41.3477 38.027 37.1517 33.9663 31.9756 33.9663C26.7996 33.9663 22.6035 38.027 22.6035 43.0361C22.6035 48.0452 26.7996 52.1059 31.9756 52.1059Z" fill="white"/>
<path d="M73.0637 22.8247C77.0443 22.8249 80.7301 24.963 83.4583 28.5825C86.187 32.2028 87.9075 37.2542 87.9075 42.8804C87.9075 48.5065 86.187 53.558 83.4583 57.1782C80.7301 60.7976 77.0443 62.9359 73.0637 62.936C69.083 62.936 65.3965 60.7978 62.6682 57.1782C59.9395 53.558 58.219 48.5065 58.219 42.8804C58.219 37.2542 59.9395 32.2028 62.6682 28.5825C65.3965 24.9629 69.083 22.8247 73.0637 22.8247Z" stroke="white" stroke-width="2.21086"/>
<mask id="mask0_5027_12529" style="mask-type:alpha" maskUnits="userSpaceOnUse" x="57" y="21" width="33" height="44">
<ellipse cx="73.0633" cy="42.8803" rx="15.9498" ry="21.1611" fill="white"/>
</mask>
<g mask="url(#mask0_5027_12529)">
<ellipse cx="82.2226" cy="42.8802" rx="13.4336" ry="17.8227" fill="white"/>
</g>
<path d="M107.93 22.8247C111.911 22.8249 115.597 24.963 118.325 28.5825C121.054 32.2028 122.774 37.2542 122.774 42.8804C122.774 48.5065 121.054 53.558 118.325 57.1782C115.597 60.7976 111.911 62.9359 107.93 62.936C103.95 62.936 100.263 60.7978 97.5349 57.1782C94.8062 53.558 93.0857 48.5065 93.0857 42.8804C93.0857 37.2542 94.8062 32.2028 97.5349 28.5825C100.263 24.9629 103.95 22.8247 107.93 22.8247Z" stroke="white" stroke-width="2.21086"/>
<mask id="mask1_5027_12529" style="mask-type:alpha" maskUnits="userSpaceOnUse" x="91" y="21" width="33" height="44">
<ellipse cx="107.93" cy="42.8803" rx="15.9498" ry="21.1611" fill="white"/>
</mask>
<g mask="url(#mask1_5027_12529)">
<ellipse cx="117.089" cy="42.8802" rx="13.4336" ry="17.8227" fill="white"/>
</g>
<defs>
<radialGradient id="paint0_radial_5027_12529" cx="0" cy="0" r="1" gradientUnits="userSpaceOnUse" gradientTransform="translate(-5.832 1.1154e-06) rotate(44.561) scale(74.2315 118.84)">
<stop stop-color="#FBFFD1"/>
<stop offset="1" stop-color="#D5009C"/>
</radialGradient>
<radialGradient id="paint1_radial_5027_12529" cx="0" cy="0" r="1" gradientUnits="userSpaceOnUse" gradientTransform="translate(98.7419 43.0362) rotate(18.0761) scale(60.9248 97.5369)">
<stop stop-color="#FF41CD"/>
<stop offset="1" stop-color="#D4009C" stop-opacity="0"/>
</radialGradient>
</defs>
</svg>
